# xmcd
#
# Track frame offsets: 
#        150
#        7425
#        25983
#        29506
#        45179
#        58408
#        72334
#        76361
#        97227
#        108734
#        128890
#        153185
#        172111
#        174788
#        197708
#        218713
#        234879
#        252935
#        271721
#        277042
#        293880
#        310464
#
# Disc length: 4410 seconds
#
# Revision: 0
# Processed by: cddbd v1.5.2PL0 Copyright (c) Steve Scherf et al.
# Submitted via: ExactAudioCopyFreeDBPlugin 1.0
#
DISCID=44113816
DTITLE=Eddy Mitchell - Ma dernière séance - Disc 1
DYEAR=2011
DGENRE=Blues
TTITLE0=C'est pourtant vrai
TTITLE1=C'est un rocker
TTITLE2=Interlude
TTITLE3=Nashville ou Belleville
TTITLE4=Sur la route de Menphis
TTITLE5=Il ne rentre pas ce soir
TTITLE6=Interlude
TTITLE7=L'esprit grande prairie
TTITLE8=Interlude
TTITLE9=Medley - Tu parles trop - Daniela - Be Bop A Lula
TTITLE10=La dernière séance
TTITLE11=Avoir 16 ans aujourd'hui
TTITLE12=Interlude
TTITLE13=Medley - Alice - Je vais craquer bientôt - A crédit et en sté
TTITLE13=réo
TTITLE14=Au bar du Lutetia
TTITLE15=Vielle canaille
TTITLE16=M'man
TTITLE17=Laisse le bon temps rouler
TTITLE18=Interlude
TTITLE19=J'ai oublié de l'oublier
TTITLE20=Toujours un coin qui me rappelle
TTITLE21=Le blues du blanc
EXTD=
EXTT0=
EXTT1=
EXTT2=
EXTT3=
EXTT4=
EXTT5=
EXTT6=
EXTT7=
EXTT8=
EXTT9=
EXTT10=
EXTT11=
EXTT12=
EXTT13=
EXTT14=
EXTT15=
EXTT16=
EXTT17=
EXTT18=
EXTT19=
EXTT20=
EXTT21=
PLAYORDER=
